<svg xmlns="http://www.w3.org/2000/svg" id="Layer_1" data-name="Layer 1" viewBox="0 0 256 64">
    <defs>
        <style>
            .cls-1{fill:#0a0b0b;}.cls-2{fill:#fff;}
        </style>
    </defs>
    <title>
        Artboard 1
    </title>
    <path d="M31.65,63.59A31.65,31.65,0,1,0,0,31.94,31.65,31.65,0,0,0,31.65,63.59" class="cls-1"/>
    <path d="M19.53,25.7A2.07,2.07,0,1,0,18.41,23a2.07,2.07,0,0,0,1.12,2.69" class="cls-2"/>
    <path d="M14.83,28.45a2.07,2.07,0,1,0-1.12-2.69,2.07,2.07,0,0,0,1.12,2.69" class="cls-2"/>
    <path d="M13.46,33.68A2.07,2.07,0,1,0,12.34,31a2.07,2.07,0,0,0,1.12,2.69" class="cls-2"/>
    <path d="M24.77,27.36a2.07,2.07,0,1,0-1.11-2.69,2.07,2.07,0,0,0,1.11,2.69" class="cls-2"/>
    <path d="M43.77,25.7A2.07,2.07,0,1,1,44.88,23a2.07,2.07,0,0,1-1.11,2.69" class="cls-2"/>
    <path d="M48.46,28.45a2.07,2.07,0,1,1,1.12-2.69,2.08,2.08,0,0,1-1.12,2.69" class="cls-2"/>
    <path d="M49.84,33.68A2.07,2.07,0,1,1,51,31a2.07,2.07,0,0,1-1.12,2.69" class="cls-2"/>
    <path d="M38.52,27.36a2.07,2.07,0,1,1,1.12-2.69,2.07,2.07,0,0,1-1.12,2.69" class="cls-2"/>
    <path d="M32.74,22h0l2.62,1.38V19.51l-2.62.83h0a1.34,1.34,0,0,0-.26-.26h0l1.05-3.32H29.75l1.05,3.32h0a1.38,1.38,0,0,0-.26.26h0l-2.62-.83v3.86L30.54,22h0a1.34,1.34,0,0,0,.27.27l-1.51,4.54v0h0a2.44,2.44,0,0,0,2,3.14h.05l.31,0,.31,0H32a2.45,2.45,0,0,0,2.09-2.42,2.36,2.36,0,0,0-.11-.72h0v0l-1.51-4.54a1.42,1.42,0,0,0,.27-.27" class="cls-2"/>
    <path d="M31.64,44.24a99.21,99.21,0,0,1,13.89.94c1.19-5,2.64-7.88,4.14-9.93l-2.82-1a5.15,5.15,0,0,1,0,3,5.73,5.73,0,0,1-1.25-2.57l-1.37,4.55a4.15,4.15,0,0,1,2.21-1c-1.3,2.8-2.93,3.52-4,3.33a2,2,0,0,1-1.68-2.35c.3-1.38,1.71-1.74,2.37-.14,1.26-2.58-.88-3.38-2.26-2.61,2.12-2.11,2.36-4,.65-6.26-2.38,1.82-2.41,3.62-1.34,6.16-1.39-1.59-3.55-.74-2.77,1.83,1-1.55,2.33-.58,2.12.9-.18,1.28-1.88,2.32-4,2.14-3-.28-3.21-2.37-3.29-4.1.74-.14,2.09.55,3.23,2.16L36,34.51a4.7,4.7,0,0,1-3.63,1.58,14.11,14.11,0,0,1,2.34-3.44h-6A14.06,14.06,0,0,1,31,36.1a4.71,4.71,0,0,1-3.63-1.58l.42,4.83c1.14-1.61,2.48-2.3,3.23-2.16-.08,1.73-.26,3.82-3.29,4.1-2.11.18-3.81-.85-4-2.14-.21-1.47,1.12-2.45,2.12-.9.78-2.57-1.38-3.43-2.77-1.83,1.07-2.54,1-4.34-1.34-6.16-1.71,2.27-1.47,4.15.65,6.26-1.38-.76-3.52,0-2.26,2.61.66-1.6,2.07-1.24,2.37.14a2,2,0,0,1-1.68,2.35c-1.05.19-2.68-.53-4-3.33a4.16,4.16,0,0,1,2.21,1l-1.37-4.55a5.74,5.74,0,0,1-1.25,2.57,5.17,5.17,0,0,1,0-3l-2.82,1c1.5,2,2.95,4.91,4.14,9.93a99.13,99.13,0,0,1,13.88-.94" class="cls-2"/>
    <path d="M96,.29A89.71,89.71,0,0,0,70.75,3.6V42.86c0,4.57,3.75,8.81,12.53,14.17,5,3.05,10.06,5.44,10.64,5.72l2.06,1,2.06-1A119.53,119.53,0,0,0,108.68,57c8.78-5.36,12.53-9.6,12.53-14.17V3.6A89.72,89.72,0,0,0,96,.29" class="cls-1"/>
    <polygon points="107.51 17.36 91.27 34.39 84.66 27.46 79.8 32.56 91.27 44.58 112.37 22.45 107.51 17.36" class="cls-2"/>
    <path d="M152.27,17.36h-5.81V13.85h10.29V26.32h-4V23.65a7.33,7.33,0,0,1-6.23,3c-6.62,0-10.39-5.16-10.39-11.69S140.35,3.26,147,3.26c4.32,0,7.83,2.08,9.32,5.26l-4,2.27a5.58,5.58,0,0,0-5.32-3.34c-4.19,0-6.1,3.51-6.1,7.34V15c0,3.86,1.88,7.47,6.14,7.47a4.87,4.87,0,0,0,5.29-5.13" class="cls-2"/>
    <path d="M171.13,26.64c-6.79,0-10.84-5.16-10.84-11.69s4.06-11.69,10.84-11.69S181.94,8.43,181.94,15s-4.06,11.69-10.81,11.69m0-19.19c-4.16,0-6.07,3.18-6.07,7.47V15c0,4.29,1.91,7.47,6.07,7.47s6-3.18,6-7.47-1.85-7.56-6-7.56" class="cls-2"/>
    <polygon points="190.16 26.32 183.73 3.59 188.89 3.59 193.31 20.34 197.66 3.59 202.82 3.59 196.39 26.32 190.16 26.32" class="cls-2"/>
    <path d="M206.52,20.57a3,3,0,1,1-3.05,3,3.06,3.06,0,0,1,3.05-3" class="cls-2"/>
    <path d="M227.43,17.65V3.56H232V18.33c0,5.07-3.9,8.31-9.25,8.31s-9.25-3.25-9.25-8.31V3.56H218V17.65c0,3.31,2,4.84,4.71,4.84s4.71-1.53,4.71-4.84" class="cls-2"/>
    <polygon points="237.1 3.59 241.71 3.59 241.71 13.43 249.83 3.59 255.48 3.59 247.59 12.62 256 26.32 250.64 26.32 244.64 16.12 241.71 19.4 241.71 26.32 237.1 26.32 237.1 3.59" class="cls-2"/>
    <polygon points="144.33 60.28 137.64 37.55 140.63 37.55 146.18 57.68 151.76 37.55 154.75 37.55 148.09 60.28 144.33 60.28" class="cls-2"/>
    <polygon points="159.68 37.55 173.29 37.55 173.29 39.95 162.48 39.95 162.48 47.42 172.41 47.42 172.41 49.82 162.48 49.82 162.48 57.87 173.91 57.87 173.91 60.28 159.68 60.28 159.68 37.55" class="cls-2"/>
    <path d="M179.29,37.55h7.76c4.22,0,7.56,2.08,7.56,6.79a6.53,6.53,0,0,1-4.51,6.3l4.8,9.64H191.7l-4.32-9.09h-5.29v9.09h-2.79Zm7.92,11.2a4.14,4.14,0,0,0,4.48-4.35A4.18,4.18,0,0,0,187.22,40h-5.13v8.8Z" class="cls-2"/>
    <rect width="2.79" height="22.73" x="200.24" y="37.55" class="cls-2"/>
    <polygon points="209.91 37.55 223.51 37.55 223.51 39.95 212.7 39.95 212.7 47.42 222.64 47.42 222.64 49.82 212.7 49.82 212.7 60.28 209.91 60.28 209.91 37.55" class="cls-2"/>
    <polygon points="240.82 37.55 243.84 37.55 236.53 50.99 236.53 60.28 233.74 60.28 233.74 50.99 226.4 37.55 229.59 37.55 235.2 48.36 240.82 37.55" class="cls-2"/>
</svg>
