<?xml version="1.0" encoding="utf-8"?>
<svg width="784" height="548" viewBox="0 0 784 548" xmlns="http://www.w3.org/2000/svg">
  <g stroke="none" stroke-width="1" fill="none" fill-rule="evenodd">
    <g transform="translate(0.906250, 0.761982)">
      <path d="M202.9 402.5C313.57 402.5 403.28 312.79 403.28 202.13 403.28 91.46 313.57 1.75 202.9 1.75 92.24 1.75 2.53 91.46 2.53 202.13 2.53 312.79 92.24 402.5 202.9 402.5" fill="#19171C"/>
      <path d="M126.19 162.61C132.94 165.4 140.61 162.21 143.36 155.54 146.13 148.87 142.96 141.14 136.21 138.36 129.58 135.64 121.88 138.88 119.13 145.58 116.37 152.23 119.55 159.9 126.19 162.61" fill="#FFFFFF"/>
      <path d="M96.44 180.05C103.2 182.83 110.86 179.64 113.61 172.97 116.38 166.3 113.23 158.56 106.47 155.79 99.84 153.06 92.14 156.32 89.38 163 86.62 169.66 89.82 177.32 96.44 180.05" fill="#FFFFFF"/>
      <path d="M87.74 213.11C94.5 215.89 102.17 212.71 104.91 206.02 107.68 199.37 104.51 191.63 97.76 188.85 91.14 186.14 83.43 189.38 80.68 196.07 77.92 202.72 81.12 210.39 87.74 213.11" fill="#FFFFFF"/>
      <path d="M159.37 173.09C166.14 175.88 173.8 172.69 176.54 166.01 179.31 159.35 176.15 151.6 169.39 148.83 162.77 146.12 155.07 149.36 152.33 156.05 149.55 162.71 152.75 170.38 159.37 173.09" fill="#FFFFFF"/>
      <path d="M279.63 162.61C272.87 165.4 265.2 162.21 262.46 155.54 259.69 148.87 262.85 141.14 269.6 138.36 276.23 135.64 283.93 138.88 286.68 145.58 289.43 152.23 286.25 159.9 279.63 162.61" fill="#FFFFFF"/>
      <path d="M309.37 180.05C302.6 182.83 294.95 179.64 292.19 172.97 289.42 166.3 292.58 158.56 299.34 155.79 305.97 153.06 313.67 156.32 316.43 163 319.18 169.66 315.99 177.32 309.37 180.05" fill="#FFFFFF"/>
      <path d="M318.07 213.11C311.32 215.89 303.65 212.71 300.9 206.02 298.13 199.37 301.29 191.63 308.04 188.85 314.67 186.14 322.37 189.38 325.13 196.07 327.89 202.72 324.69 210.39 318.07 213.11" fill="#FFFFFF"/>
      <path d="M246.44 173.09C239.68 175.88 232.02 172.69 229.26 166.01 226.5 159.35 229.66 151.6 236.41 148.83 243.04 146.12 250.74 149.36 253.5 156.05 256.26 162.71 253.06 170.38 246.44 173.09" fill="#FFFFFF"/>
      <path d="M209.84 139.19L209.87 139.16 226.47 147.88 226.47 123.4 209.9 128.66 209.84 128.6C209.38 128 208.84 127.45 208.23 126.98L208.19 126.94 214.86 105.93 202.87 105.93 190.89 105.93 197.57 126.94 197.52 126.98C196.92 127.45 196.37 128 195.91 128.6L195.86 128.66 179.28 123.4 179.28 147.88 195.88 139.16 195.93 139.19C196.41 139.83 196.99 140.41 197.64 140.89L188.1 169.66C188.09 169.69 188.08 169.74 188.07 169.76L188.06 169.8C187.62 171.23 187.38 172.76 187.38 174.34 187.38 182.12 193.12 188.55 200.6 189.65 200.71 189.66 200.82 189.68 200.93 189.7 201.57 189.78 202.22 189.84 202.87 189.84 203.54 189.84 204.19 189.78 204.82 189.7 204.93 189.68 205.04 189.66 205.16 189.65 212.63 188.55 218.38 182.12 218.38 174.34 218.38 172.76 218.13 171.23 217.69 169.8L217.68 169.76C217.67 169.74 217.66 169.69 217.65 169.66L208.11 140.89C208.76 140.41 209.34 139.83 209.84 139.19" fill="#FFFFFF"/>
      <path d="M202.88 279.95C234.4 279.95 264.24 282.09 290.82 285.89 298.36 254.17 307.56 235.98 317.03 223.05L299.17 216.69C300.95 225.76 301.23 229.98 299.25 235.81 296.31 232.92 293.51 227.63 291.33 219.54L282.68 248.35C287.95 244.72 292 242.38 296.65 242.27 288.41 260.02 278.12 264.58 271.46 263.35 263.31 261.86 259.58 254.6 260.84 248.44 262.71 239.72 271.66 237.44 275.85 247.59 283.85 231.28 270.27 226.19 261.54 231.03 274.95 217.65 276.49 205.75 265.66 191.37 250.58 202.9 250.41 214.31 257.19 230.38 248.39 220.3 234.69 225.71 239.63 242 245.98 232.16 254.39 238.35 253.07 247.69 251.96 255.82 241.21 262.4 227.83 261.24 208.66 259.49 207.51 246.26 207.04 235.31 211.75 234.44 220.24 238.81 227.47 248.97L230.15 218.41C222.27 226.61 215.12 228.17 207.17 228.42 209.82 220.17 221.96 206.65 221.96 206.65L204.3 206.65 204.3 206.65 204.28 206.65 183.82 206.65C183.82 206.65 195.98 220.17 198.63 228.42 190.68 228.17 183.53 226.61 175.65 218.41L178.32 248.97C185.56 238.81 194.04 234.44 198.76 235.31 198.28 246.26 197.14 259.49 177.96 261.24 164.58 262.4 153.84 255.82 152.72 247.69 151.41 238.35 159.81 232.16 166.17 242 171.11 225.71 157.41 220.3 148.6 230.38 155.39 214.31 155.21 202.9 140.13 191.37 129.3 205.75 130.85 217.65 144.25 231.03 135.52 226.19 121.95 231.28 129.95 247.59 134.13 237.44 143.08 239.72 144.96 248.44 146.22 254.6 142.47 261.86 134.34 263.35 127.67 264.58 117.38 260.02 109.14 242.27 113.78 242.38 117.85 244.72 123.11 248.35L114.46 219.54C112.28 227.63 109.49 232.92 106.54 235.81 104.56 229.98 104.84 225.76 106.61 216.69L88.76 223.05C98.24 235.98 107.42 254.17 114.97 285.88 141.55 282.09 171.37 279.95 202.88 279.95" fill="#FFFFFF"/>
      <path d="M67.29 513.38L48.45 513.38 48.45 502.02 81.81 502.02 81.81 542.42 68.76 542.42 68.76 533.8C64.97 539.48 57.71 543.48 48.56 543.48 27.09 543.48 14.88 526.75 14.88 505.6 14.88 484.45 28.67 467.72 50.13 467.72 64.13 467.72 75.49 474.45 80.33 484.76L67.29 492.13C64.13 485.82 58.87 481.29 50.03 481.29 36.45 481.29 30.25 492.66 30.25 505.07L30.25 505.81C30.25 518.33 36.35 530.01 50.13 530.01 64.02 530.01 67.29 519.7 67.29 513.38" fill="#FFFFFF"/>
      <path d="M127.36 543.48C105.38 543.48 92.22 526.75 92.22 505.6 92.22 484.45 105.38 467.72 127.36 467.72 149.25 467.72 162.4 484.45 162.4 505.6 162.4 526.75 149.25 543.48 127.36 543.48M127.36 481.29C113.89 481.29 107.69 491.6 107.69 505.49L107.69 505.81C107.69 519.7 113.89 530.01 127.36 530.01 140.72 530.01 146.93 519.7 146.93 505.81 146.93 492.34 140.94 481.29 127.36 481.29" fill="#FFFFFF"/>
    </g>
    <path d="M188.82 543.54L167.99 469.88 184.72 469.88 199.03 524.18 213.13 469.88 229.86 469.88 209.03 543.54 188.82 543.54Z" fill="#FFFFFF"/>
    <g transform="translate(229.040951, 466.670880)" fill="#FFFFFF">
      <path d="M10.23 57.89C15.6 57.89 20.12 62.31 20.12 67.68 20.12 73.15 15.6 77.57 10.23 77.57 4.87 77.57 0.34 73.15 0.34 67.68 0.34 62.31 4.87 57.89 10.23 57.89"/>
      <path d="M76.94 48.42L76.94 2.76 91.67 2.76 91.67 50.63C91.67 67.04 79.05 77.57 61.69 77.57 44.32 77.57 31.7 67.04 31.7 50.63L31.7 2.76 46.43 2.76 46.43 48.42C46.43 59.15 53.06 64.1 61.69 64.1 70.31 64.1 76.94 59.15 76.94 48.42"/>
    </g>
    <path d="M335.08 469.88L350.01 469.88 350.01 501.77 376.32 469.88 394.63 469.88 369.06 499.14 396.31 543.54 378.95 543.54 359.49 510.5 350.01 521.13 350.01 543.54 335.08 543.54 335.08 469.88Z" fill="#FFFFFF"/>
    <path d="M610.49 3.98C549.8 3.98 494.14 11.85 450.75 24.95L450.75 49.51 450.75 166.28 450.75 273.49C450.75 302.45 474.48 329.29 530.1 363.24 561.74 382.55 593.76 397.7 597.46 399.43L610.49 405.47 623.5 399.44C624.88 398.8 657.84 383.41 690.88 363.24 746.49 329.29 770.22 302.45 770.22 273.49L770.22 166.28 770.22 49.53 770.22 24.95C726.82 11.85 671.17 3.98 610.49 3.98" fill="#19171C"/>
    <path d="M 531.12 177.407 C 531.174 202.555 533.849 224.473 531.84 246.577 C 531.347 252.005 524.421 268 529.677 273.256 C 538.515 273.977 540.233 267.129 546.261 262.44 C 548.244 260.898 558.52 258.585 558.52 258.114 C 560.748 266.373 567.439 277.128 572.941 282.63 C 573.662 279.188 579.141 274.41 580.873 271.814 C 583.945 267.206 585.25 264.552 589.525 260.277 C 599.56 274.247 610.738 284.373 621.252 294.888 C 627.769 282.576 630.648 270.327 636.394 258.835 C 638.135 259.345 647.498 270.948 648.653 273.256 C 648.914 273.78 652.763 277.078 652.979 276.861 C 655.937 273.903 656.749 268.723 659.469 265.324 C 661.648 262.6 663.469 259.618 665.237 256.671 C 667.539 252.834 671.565 252.108 673.169 247.298 C 679.954 253.361 687.805 273.977 696.964 273.977 C 696.964 240.804 692.637 209.564 692.637 176.633 C 692.637 174.23 692.637 172.547 692.637 170.865 C 692.637 169.609 692.079 168.969 691.181 168.72 C 692.138 163.693 692.638 158.504 692.638 153.199 C 692.638 107.601 655.674 70.637 610.076 70.637 C 564.478 70.637 527.514 107.601 527.514 153.199 C 527.514 161.623 528.775 169.752 531.12 177.407 Z M 595.811 154.953 C 593.76 167.329 585.41 176.253 577.16 174.886 C 568.91 173.519 563.884 162.379 565.934 150.003 C 567.985 137.627 576.335 128.702 584.585 130.069 C 592.836 131.436 597.861 142.577 595.811 154.953 Z M 654.128 150.034 C 656.278 161.584 652.149 172.039 644.906 173.387 C 637.663 174.736 630.048 166.466 627.899 154.917 C 625.749 143.367 629.878 132.912 637.121 131.564 C 644.364 130.216 651.979 138.485 654.128 150.034 Z M 563.567 226.387 C 564.288 226.387 566.711 224.488 567.893 223.503 C 571.727 220.308 573.365 214.892 577.267 211.966 C 589.039 203.137 599.515 196.844 614.042 193.939 C 620.771 192.593 632.551 192.978 638.558 195.381 C 640.502 196.159 644.36 195.415 645.768 196.823 C 656.249 207.304 673.13 225.705 660.911 237.924 C 657.315 241.519 649.565 235.26 647.21 234.318 C 638.059 230.658 633.364 215.571 622.694 215.571 C 619.461 214.315 616.103 214.85 613.32 214.85 C 609.436 214.85 603.841 213.821 600.341 215.571 C 591.183 220.15 588.206 228.789 577.988 232.876 C 573.388 234.716 553.941 237.455 562.846 228.55 C 563.567 228.013 564.288 227.645 564.288 227.108 Z" style="stroke: rgb(255, 255, 255); fill: rgb(255, 255, 255);"/>
    <path d="M 535.446 173.028 C 523.867 172.307 518.662 168.106 515.256 157.886 C 514.256 154.887 515.584 148.84 513.093 146.349 C 509.9 142.436 508.766 129.11 508.766 125.438 C 501.341 124.717 502.277 127.755 502.277 135.533 C 500.977 139.429 500.139 130.974 496.508 129.764 C 493.474 128.753 485.944 129.278 483.529 130.485 C 473.436 135.532 481.746 150.334 486.413 155.001 C 487.134 156.251 492.119 155.691 493.624 156.444 C 496.29 157.777 499.082 161.901 500.834 163.654 C 503.315 166.134 504.124 172.082 505.161 175.191 C 506.226 178.388 514.739 184.667 517.419 186.007 C 519.912 187.254 527.431 188.975 528.956 187.449 C 529.061 187.344 532.561 187.449 532.561 187.449 C 538.507 187.449 536.888 184.232 536.888 179.518 C 536.888 177.595 536.888 176.393 536.888 175.191 Z" style="fill: rgb(255, 255, 255); stroke: rgba(0, 0, 0, 0);"/>
    <path d="M 582.315 165.096 Z" style="stroke: black; fill: rgb(255, 255, 255);"/>
    <path d="M 686.869 180.239 C 686.148 177.392 678.044 167.432 681.821 163.654 C 688.687 156.789 704.516 162.225 712.106 157.165 C 716.581 154.181 719.824 143.836 718.596 137.696 C 718.251 135.973 716.09 129.764 714.99 129.764 C 711.175 125.228 716.64 124.717 719.317 124.717 C 721.376 125.438 725.806 129.045 725.806 130.485 C 728.695 134.096 729.592 128.142 731.575 126.159 C 732.296 125.438 739.082 121.981 741.67 123.275 C 744.986 124.933 749.065 127.25 751.044 131.206 C 754.928 138.975 742.363 142.051 738.786 145.628 C 733.813 150.6 735.502 162.612 730.854 167.26 C 723.659 174.455 707.01 169.472 699.848 176.633 C 698.009 178.473 693.322 176.67 691.195 178.797 C 690.474 179.871 688.665 180.239 687.59 180.239 Z" style="fill: rgb(255, 255, 255); stroke: rgba(0, 0, 0, 0);"/>
    <path d="M 1269.569 1381.006 C 1261.282 1378.626 1255.252 1375.699 1251.479 1372.226 C 1247.712 1368.759 1245.829 1364.476 1245.829 1359.376 C 1245.829 1353.609 1248.132 1348.843 1252.739 1345.076 C 1257.352 1341.303 1263.346 1339.416 1270.719 1339.416 C 1275.752 1339.416 1280.239 1340.386 1284.179 1342.326 C 1288.112 1344.273 1291.162 1346.956 1293.329 1350.376 C 1295.489 1353.796 1296.569 1357.536 1296.569 1361.596 L 1286.869 1361.596 C 1286.869 1357.169 1285.459 1353.689 1282.639 1351.156 C 1279.826 1348.623 1275.852 1347.356 1270.719 1347.356 C 1265.959 1347.356 1262.246 1348.406 1259.579 1350.506 C 1256.912 1352.599 1255.579 1355.506 1255.579 1359.226 C 1255.579 1362.213 1256.846 1364.736 1259.379 1366.796 C 1261.912 1368.863 1266.222 1370.749 1272.309 1372.456 C 1278.389 1374.163 1283.149 1376.049 1286.589 1378.116 C 1290.022 1380.176 1292.569 1382.583 1294.229 1385.336 C 1295.889 1388.083 1296.719 1391.316 1296.719 1395.036 C 1296.719 1400.969 1294.406 1405.723 1289.779 1409.296 C 1285.152 1412.869 1278.966 1414.656 1271.219 1414.656 C 1266.192 1414.656 1261.499 1413.689 1257.139 1411.756 C 1252.779 1409.829 1249.419 1407.189 1247.059 1403.836 C 1244.692 1400.483 1243.509 1396.679 1243.509 1392.426 L 1253.219 1392.426 C 1253.219 1396.853 1254.852 1400.346 1258.119 1402.906 C 1261.392 1405.473 1265.759 1406.756 1271.219 1406.756 C 1276.319 1406.756 1280.226 1405.716 1282.939 1403.636 C 1285.659 1401.556 1287.019 1398.723 1287.019 1395.136 C 1287.019 1391.549 1285.759 1388.776 1283.239 1386.816 C 1280.726 1384.856 1276.169 1382.919 1269.569 1381.006 ZM 1362.953 1390.406 C 1362.052 1398.153 1359.196 1404.129 1354.383 1408.336 C 1349.569 1412.549 1343.172 1414.656 1335.193 1414.656 C 1326.546 1414.656 1319.616 1411.553 1314.403 1405.346 C 1309.182 1399.146 1306.573 1390.849 1306.573 1380.456 L 1306.573 1373.416 C 1306.573 1366.609 1307.789 1360.623 1310.223 1355.456 C 1312.656 1350.296 1316.103 1346.333 1320.563 1343.566 C 1325.023 1340.799 1330.186 1339.416 1336.052 1339.416 C 1343.826 1339.416 1350.063 1341.586 1354.763 1345.926 C 1359.456 1350.266 1362.186 1356.276 1362.953 1363.956 L 1353.253 1363.956 C 1352.412 1358.123 1350.593 1353.899 1347.792 1351.286 C 1344.993 1348.666 1341.079 1347.356 1336.052 1347.356 C 1329.879 1347.356 1325.042 1349.636 1321.542 1354.196 C 1318.036 1358.756 1316.282 1365.246 1316.282 1373.666 L 1316.282 1380.756 C 1316.282 1388.703 1317.943 1395.023 1321.263 1399.716 C 1324.583 1404.409 1329.226 1406.756 1335.193 1406.756 C 1340.559 1406.756 1344.676 1405.539 1347.542 1403.106 C 1350.409 1400.679 1352.313 1396.446 1353.253 1390.406 L 1362.953 1390.406 ZM 1416.57 1394.536 L 1385.89 1394.536 L 1379 1413.646 L 1369.04 1413.646 L 1397 1340.416 L 1405.45 1340.416 L 1433.46 1413.646 L 1423.56 1413.646 L 1416.57 1394.536 M 1388.8 1386.586 L 1413.7 1386.586 L 1401.23 1352.336 L 1388.8 1386.586 ZM 1470.179 1384.026 L 1452.979 1384.026 L 1452.979 1413.646 L 1443.269 1413.646 L 1443.269 1340.416 L 1467.509 1340.416 C 1475.755 1340.416 1482.102 1342.296 1486.549 1346.056 C 1490.989 1349.809 1493.209 1355.273 1493.209 1362.446 C 1493.209 1367.006 1491.975 1370.979 1489.509 1374.366 C 1487.049 1377.753 1483.622 1380.286 1479.229 1381.966 L 1496.429 1413.046 L 1496.429 1413.646 L 1486.069 1413.646 L 1470.179 1384.026 M 1452.979 1376.126 L 1467.809 1376.126 C 1472.602 1376.126 1476.416 1374.886 1479.249 1372.406 C 1482.082 1369.926 1483.499 1366.606 1483.499 1362.446 C 1483.499 1357.919 1482.152 1354.449 1479.459 1352.036 C 1476.759 1349.623 1472.859 1348.399 1467.759 1348.366 L 1452.979 1348.366 L 1452.979 1376.126 ZM 1517.096 1413.646 L 1507.436 1413.646 L 1507.436 1340.416 L 1517.096 1340.416 L 1517.096 1413.646 ZM 1575.128 1381.306 L 1544.408 1381.306 L 1544.408 1413.646 L 1534.748 1413.646 L 1534.748 1340.416 L 1580.108 1340.416 L 1580.108 1348.366 L 1544.408 1348.366 L 1544.408 1373.416 L 1575.128 1373.416 L 1575.128 1381.306 ZM 1614.007 1377.186 L 1633.117 1340.416 L 1644.077 1340.416 L 1618.837 1386.336 L 1618.837 1413.646 L 1609.177 1413.646 L 1609.177 1386.336 L 1583.927 1340.416 L 1594.997 1340.416 L 1614.007 1377.186 Z" transform="matrix(0.88087397813797, 0, 0, 1.0000009536743164, -665.25634765625, -870.9622192382812)" style="fill: rgb(255, 255, 255); white-space: pre;"/>
  </g>
</svg>