<svg width="784" height="548" viewBox="0 0 784 548" version="1.1" xmlns="http://www.w3.org/2000/svg">
  <g  stroke="none" stroke-width="1" fill="none" fill-rule="evenodd">
    <g  transform="translate(0.906250, 0.761982)">
      <path d="M202.9 402.5C313.57 402.5 403.28 312.79 403.28 202.13 403.28 91.46 313.57 1.75 202.9 1.75 92.24 1.75 2.53 91.46 2.53 202.13 2.53 312.79 92.24 402.5 202.9 402.5"  fill="#19171C"/>
      <path d="M126.19 162.61C132.94 165.4 140.61 162.21 143.36 155.54 146.13 148.87 142.96 141.14 136.21 138.36 129.58 135.64 121.88 138.88 119.13 145.58 116.37 152.23 119.55 159.9 126.19 162.61"  fill="#FFFFFF"/>
      <path d="M96.44 180.05C103.2 182.83 110.86 179.64 113.61 172.97 116.38 166.3 113.23 158.56 106.47 155.79 99.84 153.06 92.14 156.32 89.38 163 86.62 169.66 89.82 177.32 96.44 180.05"  fill="#FFFFFF"/>
      <path d="M87.74 213.11C94.5 215.89 102.17 212.71 104.91 206.02 107.68 199.37 104.51 191.63 97.76 188.85 91.14 186.14 83.43 189.38 80.68 196.07 77.92 202.72 81.12 210.39 87.74 213.11"  fill="#FFFFFF"/>
      <path d="M159.37 173.09C166.14 175.88 173.8 172.69 176.54 166.01 179.31 159.35 176.15 151.6 169.39 148.83 162.77 146.12 155.07 149.36 152.33 156.05 149.55 162.71 152.75 170.38 159.37 173.09"  fill="#FFFFFF"/>
      <path d="M279.63 162.61C272.87 165.4 265.2 162.21 262.46 155.54 259.69 148.87 262.85 141.14 269.6 138.36 276.23 135.64 283.93 138.88 286.68 145.58 289.43 152.23 286.25 159.9 279.63 162.61"  fill="#FFFFFF"/>
      <path d="M309.37 180.05C302.6 182.83 294.95 179.64 292.19 172.97 289.42 166.3 292.58 158.56 299.34 155.79 305.97 153.06 313.67 156.32 316.43 163 319.18 169.66 315.99 177.32 309.37 180.05"  fill="#FFFFFF"/>
      <path d="M318.07 213.11C311.32 215.89 303.65 212.71 300.9 206.02 298.13 199.37 301.29 191.63 308.04 188.85 314.67 186.14 322.37 189.38 325.13 196.07 327.89 202.72 324.69 210.39 318.07 213.11"  fill="#FFFFFF"/>
      <path d="M246.44 173.09C239.68 175.88 232.02 172.69 229.26 166.01 226.5 159.35 229.66 151.6 236.41 148.83 243.04 146.12 250.74 149.36 253.5 156.05 256.26 162.71 253.06 170.38 246.44 173.09"  fill="#FFFFFF"/>
      <path d="M209.84 139.19L209.87 139.16 226.47 147.88 226.47 123.4 209.9 128.66 209.84 128.6C209.38 128 208.84 127.45 208.23 126.98L208.19 126.94 214.86 105.93 202.87 105.93 190.89 105.93 197.57 126.94 197.52 126.98C196.92 127.45 196.37 128 195.91 128.6L195.86 128.66 179.28 123.4 179.28 147.88 195.88 139.16 195.93 139.19C196.41 139.83 196.99 140.41 197.64 140.89L188.1 169.66C188.09 169.69 188.08 169.74 188.07 169.76L188.06 169.8C187.62 171.23 187.38 172.76 187.38 174.34 187.38 182.12 193.12 188.55 200.6 189.65 200.71 189.66 200.82 189.68 200.93 189.7 201.57 189.78 202.22 189.84 202.87 189.84 203.54 189.84 204.19 189.78 204.82 189.7 204.93 189.68 205.04 189.66 205.16 189.65 212.63 188.55 218.38 182.12 218.38 174.34 218.38 172.76 218.13 171.23 217.69 169.8L217.68 169.76C217.67 169.74 217.66 169.69 217.65 169.66L208.11 140.89C208.76 140.41 209.34 139.83 209.84 139.19"  fill="#FFFFFF"/>
      <path d="M202.88 279.95C234.4 279.95 264.24 282.09 290.82 285.89 298.36 254.17 307.56 235.98 317.03 223.05L299.17 216.69C300.95 225.76 301.23 229.98 299.25 235.81 296.31 232.92 293.51 227.63 291.33 219.54L282.68 248.35C287.95 244.72 292 242.38 296.65 242.27 288.41 260.02 278.12 264.58 271.46 263.35 263.31 261.86 259.58 254.6 260.84 248.44 262.71 239.72 271.66 237.44 275.85 247.59 283.85 231.28 270.27 226.19 261.54 231.03 274.95 217.65 276.49 205.75 265.66 191.37 250.58 202.9 250.41 214.31 257.19 230.38 248.39 220.3 234.69 225.71 239.63 242 245.98 232.16 254.39 238.35 253.07 247.69 251.96 255.82 241.21 262.4 227.83 261.24 208.66 259.49 207.51 246.26 207.04 235.31 211.75 234.44 220.24 238.81 227.47 248.97L230.15 218.41C222.27 226.61 215.12 228.17 207.17 228.42 209.82 220.17 221.96 206.65 221.96 206.65L204.3 206.65 204.3 206.65 204.28 206.65 183.82 206.65C183.82 206.65 195.98 220.17 198.63 228.42 190.68 228.17 183.53 226.61 175.65 218.41L178.32 248.97C185.56 238.81 194.04 234.44 198.76 235.31 198.28 246.26 197.14 259.49 177.96 261.24 164.58 262.4 153.84 255.82 152.72 247.69 151.41 238.35 159.81 232.16 166.17 242 171.11 225.71 157.41 220.3 148.6 230.38 155.39 214.31 155.21 202.9 140.13 191.37 129.3 205.75 130.85 217.65 144.25 231.03 135.52 226.19 121.95 231.28 129.95 247.59 134.13 237.44 143.08 239.72 144.96 248.44 146.22 254.6 142.47 261.86 134.34 263.35 127.67 264.58 117.38 260.02 109.14 242.27 113.78 242.38 117.85 244.72 123.11 248.35L114.46 219.54C112.28 227.63 109.49 232.92 106.54 235.81 104.56 229.98 104.84 225.76 106.61 216.69L88.76 223.05C98.24 235.98 107.42 254.17 114.97 285.88 141.55 282.09 171.37 279.95 202.88 279.95"  fill="#FFFFFF"/>
      <path d="M67.29 513.38L48.45 513.38 48.45 502.02 81.81 502.02 81.81 542.42 68.76 542.42 68.76 533.8C64.97 539.48 57.71 543.48 48.56 543.48 27.09 543.48 14.88 526.75 14.88 505.6 14.88 484.45 28.67 467.72 50.13 467.72 64.13 467.72 75.49 474.45 80.33 484.76L67.29 492.13C64.13 485.82 58.87 481.29 50.03 481.29 36.45 481.29 30.25 492.66 30.25 505.07L30.25 505.81C30.25 518.33 36.35 530.01 50.13 530.01 64.02 530.01 67.29 519.7 67.29 513.38"  fill="#FFFFFF"/>
      <path d="M127.36 543.48C105.38 543.48 92.22 526.75 92.22 505.6 92.22 484.45 105.38 467.72 127.36 467.72 149.25 467.72 162.4 484.45 162.4 505.6 162.4 526.75 149.25 543.48 127.36 543.48M127.36 481.29C113.89 481.29 107.69 491.6 107.69 505.49L107.69 505.81C107.69 519.7 113.89 530.01 127.36 530.01 140.72 530.01 146.93 519.7 146.93 505.81 146.93 492.34 140.94 481.29 127.36 481.29"  fill="#FFFFFF"/>
    </g>
    <path d="M188.82 543.54L167.99 469.88 184.72 469.88 199.03 524.18 213.13 469.88 229.86 469.88 209.03 543.54 188.82 543.54Z"  fill="#FFFFFF"/>
    <g  transform="translate(229.040951, 466.670880)" fill="#FFFFFF">
      <path d="M10.23 57.89C15.6 57.89 20.12 62.31 20.12 67.68 20.12 73.15 15.6 77.57 10.23 77.57 4.87 77.57 0.34 73.15 0.34 67.68 0.34 62.31 4.87 57.89 10.23 57.89" />
      <path d="M76.94 48.42L76.94 2.76 91.67 2.76 91.67 50.63C91.67 67.04 79.05 77.57 61.69 77.57 44.32 77.57 31.7 67.04 31.7 50.63L31.7 2.76 46.43 2.76 46.43 48.42C46.43 59.15 53.06 64.1 61.69 64.1 70.31 64.1 76.94 59.15 76.94 48.42" />
    </g>
    <path d="M335.08 469.88L350.01 469.88 350.01 501.77 376.32 469.88 394.63 469.88 369.06 499.14 396.31 543.54 378.95 543.54 359.49 510.5 350.01 521.13 350.01 543.54 335.08 543.54 335.08 469.88Z"  fill="#FFFFFF"/>
    <path d="M466 543.54L444.32 469.88 454 469.88 471.99 535.12 490.09 469.88 499.77 469.88 478.2 543.54 466 543.54Z"  fill="#FFFFFF"/>
    <path d="M515.01 469.88L559.1 469.88 559.1 477.67 524.06 477.67 524.06 501.87 556.26 501.87 556.26 509.66 524.06 509.66 524.06 535.75 561.1 535.75 561.1 543.54 515.01 543.54 515.01 469.88Z"  fill="#FFFFFF"/>
    <path d="M576.06 469.88L601.21 469.88C614.89 469.88 625.73 476.62 625.73 491.87 625.73 501.24 620.57 508.61 611.1 512.29L626.67 543.54 616.26 543.54 602.26 514.08 585.11 514.08 585.11 543.54 576.06 543.54 576.06 469.88ZM601.74 506.19C610.15 506.19 616.26 501.03 616.26 492.09 616.26 482.93 610.15 477.67 601.74 477.67L585.11 477.67 585.11 506.19 601.74 506.19Z"  fill="#FFFFFF"/>
    <path d="M643.54 469.88L652.59 469.88 652.59 543.54 643.54 543.54 643.54 469.88Z"  fill="#FFFFFF"/>
    <path d="M672.46 469.88L716.55 469.88 716.55 477.67 681.51 477.67 681.51 501.87 713.71 501.87 713.71 509.66 681.51 509.66 681.51 543.54 672.46 543.54 672.46 469.88Z"  fill="#FFFFFF"/>
    <path d="M773.8 469.88L783.59 469.88 759.91 513.44 759.91 543.54 750.86 543.54 750.86 513.44 727.08 469.88 737.39 469.88 755.6 504.92 773.8 469.88Z"  fill="#FFFFFF"/>
    <path d="M610.49 3.98C549.8 3.98 494.14 11.85 450.75 24.95L450.75 49.51 450.75 166.28 450.75 273.49C450.75 302.45 474.48 329.29 530.1 363.24 561.74 382.55 593.76 397.7 597.46 399.43L610.49 405.47 623.5 399.44C624.88 398.8 657.84 383.41 690.88 363.24 746.49 329.29 770.22 302.45 770.22 273.49L770.22 166.28 770.22 49.53 770.22 24.95C726.82 11.85 671.17 3.98 610.49 3.98"  fill="#19171C"/>
    <path d="M684 110.01L581.17 217.84 539.33 173.97 508.59 206.21 581.17 282.32 714.75 142.24 684 110.01Z"  fill="#FFFFFF"/>
  </g>
</svg>
