<svg version="1.1" xmlns="http://www.w3.org/2000/svg" xmlns:xlink="http://www.w3.org/1999/xlink" style="" xml:space="preserve" width="240.66667890548706" height="168.7407426834107"><rect id="backgroundrect" width="100%" height="100%" x="0" y="0" fill="none" stroke="none" style="" class="selected"/>
<style type="text/css">
	.st0{fill:#FFFFFF;}
	.st1{fill:#0B0B0B;}
	.st2{fill:none;}
</style>



<g class="currentLayer" style=""><title>Layer 1</title>
	
	<g id="svg_4" class="">
		<g id="svg_5">
			<g id="svg_6">
				<path class="st1" d="M61.69999885559082,123.4000015258789 c34.099998474121094,0 61.70000076293945,-27.600000381469727 61.70000076293945,-61.70000076293945 s-27.600000381469727,-61.70000076293945 -61.70000076293945,-61.70000076293945 S0,27.599998474121094 0,61.69999694824219 S27.600000381469727,123.4000015258789 61.69999885559082,123.4000015258789 " id="svg_7"/>
				<path class="st0" d="M38.00000190734863,49.5 c2.0999999046325684,0.8999999761581421 4.400000095367432,-0.10000000149011612 5.300000190734863,-2.200000047683716 s-0.10000000149011612,-4.400000095367432 -2.200000047683716,-5.300000190734863 c-2,-0.800000011920929 -4.400000095367432,0.20000000298023224 -5.300000190734863,2.200000047683716 C35.00000190734863,46.30000305175781 36.00000190734863,48.69999694824219 38.00000190734863,49.5 " id="svg_8"/>
				<path class="st0" d="M28.899995803833008,54.900001525878906 c2.0999999046325684,0.8999999761581421 4.400000095367432,-0.10000000149011612 5.300000190734863,-2.200000047683716 s-0.10000000149011612,-4.400000095367432 -2.200000047683716,-5.300000190734863 c-2,-0.800000011920929 -4.400000095367432,0.20000000298023224 -5.300000190734863,2.200000047683716 C25.89999771118164,51.69999694824219 26.799999237060547,54.099998474121094 28.899995803833008,54.900001525878906 " id="svg_9"/>
				<path class="st0" d="M26.199996948242188,65.0999984741211 c2.0999999046325684,0.8999999761581421 4.400000095367432,-0.10000000149011612 5.300000190734863,-2.200000047683716 c0.8999999761581421,-2 -0.10000000149011612,-4.400000095367432 -2.200000047683716,-5.300000190734863 c-2,-0.800000011920929 -4.400000095367432,0.20000000298023224 -5.300000190734863,2.200000047683716 C23.199996948242188,61.900001525878906 24.199996948242188,64.19999694824219 26.199996948242188,65.0999984741211 " id="svg_10"/>
				<path class="st0" d="M48.299997329711914,52.80000305175781 c2.0999999046325684,0.8999999761581421 4.400000095367432,-0.10000000149011612 5.300000190734863,-2.200000047683716 s-0.10000000149011612,-4.400000095367432 -2.200000047683716,-5.300000190734863 c-2,-0.800000011920929 -4.400000095367432,0.20000000298023224 -5.300000190734863,2.200000047683716 C45.19999885559082,49.599998474121094 46.19999885559082,51.900001525878906 48.299997329711914,52.80000305175781 " id="svg_11"/>
				<path class="st0" d="M85.29999732971191,49.5 c-2.0999999046325684,0.8999999761581421 -4.400000095367432,-0.10000000149011612 -5.300000190734863,-2.200000047683716 s0.10000000149011612,-4.400000095367432 2.200000047683716,-5.300000190734863 c2,-0.800000011920929 4.400000095367432,0.20000000298023224 5.300000190734863,2.200000047683716 C88.29999732971191,46.30000305175781 87.29999732971191,48.69999694824219 85.29999732971191,49.5 " id="svg_12"/>
				<path class="st0" d="M94.50000190734863,54.900001525878906 c-2.0999999046325684,0.8999999761581421 -4.400000095367432,-0.10000000149011612 -5.300000190734863,-2.200000047683716 s0.10000000149011612,-4.400000095367432 2.200000047683716,-5.300000190734863 c2,-0.800000011920929 4.400000095367432,0.20000000298023224 5.300000190734863,2.200000047683716 C97.49998664855957,51.69999694824219 96.49998664855957,54.099998474121094 94.50000190734863,54.900001525878906 " id="svg_13"/>
				<path class="st0" d="M97.0999927520752,65.0999984741211 c-2.0999999046325684,0.8999999761581421 -4.400000095367432,-0.10000000149011612 -5.300000190734863,-2.200000047683716 c-0.8999999761581421,-2 0.10000000149011612,-4.400000095367432 2.200000047683716,-5.300000190734863 c2,-0.800000011920929 4.400000095367432,0.20000000298023224 5.300000190734863,2.200000047683716 C100.19999885559082,61.900001525878906 99.19999885559082,64.19999694824219 97.0999927520752,65.0999984741211 " id="svg_14"/>
				<path class="st0" d="M75.10000038146973,52.80000305175781 c-2.0999999046325684,0.8999999761581421 -4.400000095367432,-0.10000000149011612 -5.300000190734863,-2.200000047683716 s0.10000000149011612,-4.400000095367432 2.200000047683716,-5.300000190734863 c2,-0.800000011920929 4.400000095367432,0.20000000298023224 5.300000190734863,2.200000047683716 C78.10000038146973,49.599998474121094 77.10000038146973,51.900001525878906 75.10000038146973,52.80000305175781 " id="svg_15"/>
				<path class="st0" d="M63.799997329711914,42.30000305175781 L63.799997329711914,42.30000305175781 l5.099999904632568,2.700000047683716 V37.5 l-5.099999904632568,1.600000023841858 l0,0 c-0.10000000149011612,-0.20000000298023224 -0.30000001192092896,-0.4000000059604645 -0.5,-0.5 l0,0 l2.0999999046325684,-6.5 h-3.700000047683716 h-3.700000047683716 l2.0999999046325684,6.5 l0,0 c-0.20000000298023224,0.10000000149011612 -0.4000000059604645,0.30000001192092896 -0.5,0.5 l0,0 L54.40000343322754,37.5 v7.5 l5.099999904632568,-2.700000047683716 l0,0 c0.20000000298023224,0.20000000298023224 0.30000001192092896,0.4000000059604645 0.5,0.5 l-2.9000000953674316,8.899999618530273 l0,0 l0,0 c-0.10000000149011612,0.4000000059604645 -0.20000000298023224,0.8999999761581421 -0.20000000298023224,1.399999976158142 c0,2.4000000953674316 1.7999999523162842,4.400000095367432 4.099999904632568,4.699999809265137 h0.10000000149011612 c0.20000000298023224,0 0.4000000059604645,0 0.6000000238418579,0 s0.4000000059604645,0 0.6000000238418579,0 h0.10000000149011612 c2.299999952316284,-0.30000001192092896 4.099999904632568,-2.299999952316284 4.099999904632568,-4.699999809265137 c0,-0.5 -0.10000000149011612,-1 -0.20000000298023224,-1.399999976158142 l0,0 l0,0 l-2.9000000953674316,-8.899999618530273 C63.50000190734863,42.69999694824219 63.69999885559082,42.5 63.799997329711914,42.30000305175781 " id="svg_16"/>
				<path class="st0" d="M61.69999885559082,85.69999694824219 c9.699999809265137,0 18.899999618530273,0.699999988079071 27.100000381469727,1.7999999523162842 c2.299999952316284,-9.800000190734863 5.199999809265137,-15.399999618530273 8.100000381469727,-19.399999618530273 l-5.5,-2 c0.5,2.799999952316284 0.6000000238418579,4.099999904632568 0,5.900000095367432 c-0.8999999761581421,-0.8999999761581421 -1.7999999523162842,-2.5 -2.4000000953674316,-5 l-2.700000047683716,8.899999618530273 c1.600000023841858,-1.100000023841858 2.9000000953674316,-1.7999999523162842 4.300000190734863,-1.899999976158142 c-2.5,5.5 -5.699999809265137,6.900000095367432 -7.800000190734863,6.5 c-2.5,-0.5 -3.700000047683716,-2.700000047683716 -3.299999952316284,-4.599999904632568 c0.6000000238418579,-2.700000047683716 3.299999952316284,-3.4000000953674316 4.599999904632568,-0.30000001192092896 c2.5,-5 -1.7000000476837158,-6.599999904632568 -4.400000095367432,-5.099999904632568 c4.099999904632568,-4.099999904632568 4.599999904632568,-7.800000190734863 1.2999999523162842,-12.199999809265137 c-4.599999904632568,3.5999999046325684 -4.699999809265137,7.099999904632568 -2.5999999046325684,12 c-2.700000047683716,-3.0999999046325684 -6.900000095367432,-1.399999976158142 -5.400000095367432,3.5999999046325684 c2,-3 4.5,-1.100000023841858 4.099999904632568,1.7999999523162842 c-0.30000001192092896,2.5 -3.700000047683716,4.5 -7.800000190734863,4.199999809265137 c-5.900000095367432,-0.5 -6.300000190734863,-4.599999904632568 -6.400000095367432,-8 c1.5,-0.30000001192092896 4.099999904632568,1.100000023841858 6.300000190734863,4.199999809265137 l0.800000011920929,-9.399999618530273 c-2.4000000953674316,2.5 -4.599999904632568,3 -7.099999904632568,3.0999999046325684 c0.800000011920929,-2.5 4.599999904632568,-6.699999809265137 4.599999904632568,-6.699999809265137 h-5.400000095367432 l0,0 l0,0 h-6.300000190734863 c0,0 3.700000047683716,4.199999809265137 4.599999904632568,6.699999809265137 c-2.4000000953674316,-0.10000000149011612 -4.699999809265137,-0.6000000238418579 -7.099999904632568,-3.0999999046325684 l0.800000011920929,9.399999618530273 c2.200000047683716,-3.0999999046325684 4.800000190734863,-4.5 6.300000190734863,-4.199999809265137 c-0.10000000149011612,3.4000000953674316 -0.5,7.400000095367432 -6.400000095367432,8 c-4.099999904632568,0.4000000059604645 -7.400000095367432,-1.7000000476837158 -7.800000190734863,-4.199999809265137 c-0.4000000059604645,-2.9000000953674316 2.200000047683716,-4.800000190734863 4.099999904632568,-1.7999999523162842 c1.5,-5 -2.700000047683716,-6.699999809265137 -5.400000095367432,-3.5999999046325684 c2.0999999046325684,-4.900000095367432 2,-8.5 -2.5999999046325684,-12 c-3.299999952316284,4.400000095367432 -2.9000000953674316,8.100000381469727 1.2999999523162842,12.199999809265137 c-2.700000047683716,-1.5 -6.900000095367432,0.10000000149011612 -4.400000095367432,5.099999904632568 c1.2999999523162842,-3.0999999046325684 4,-2.4000000953674316 4.599999904632568,0.30000001192092896 c0.4000000059604645,1.899999976158142 -0.800000011920929,4.099999904632568 -3.299999952316284,4.599999904632568 c-2,0.4000000059604645 -5.199999809265137,-1 -7.800000190734863,-6.5 c1.399999976158142,0 2.700000047683716,0.800000011920929 4.300000190734863,1.899999976158142 l-2.700000047683716,-8.899999618530273 c-0.699999988079071,2.5 -1.5,4.099999904632568 -2.4000000953674316,5 c-0.6000000238418579,-1.7999999523162842 -0.5,-3.0999999046325684 0,-5.900000095367432 l-5.5,2 c2.9000000953674316,4 5.699999809265137,9.600000381469727 8.100000381469727,19.299999237060547 C42.799997329711914,86.30000305175781 52.00000190734863,85.69999694824219 61.69999885559082,85.69999694824219 " id="svg_17"/>
			</g>
		</g>
		<g id="svg_18">
			<path class="st1" d="M19.89999771118164,157.50000762939453 h-5.800000190734863 v-3.5 h10.300000190734863 V166.50000762939453 h-4 v-2.700000047683716 c-1.2000000476837158,1.7999999523162842 -3.4000000953674316,3 -6.199999809265137,3 c-6.599999904632568,0 -10.399999618530273,-5.199999809265137 -10.399999618530273,-11.699999809265137 s4.199999809265137,-11.699999809265137 10.899999618530273,-11.699999809265137 c4.300000190734863,0 7.800000190734863,2.0999999046325684 9.300000190734863,5.199999809265137 l-4,2.299999952316284 c-1,-1.899999976158142 -2.5999999046325684,-3.299999952316284 -5.300000190734863,-3.299999952316284 c-4.199999809265137,0 -6.099999904632568,3.5 -6.099999904632568,7.300000190734863 v0.20000000298023224 c0,3.9000000953674316 1.899999976158142,7.5 6.099999904632568,7.5 C18.89999771118164,162.70000457763672 19.89999771118164,159.50000762939453 19.89999771118164,157.50000762939453 z" id="svg_19"/>
			<path class="st1" d="M38.40000343322754,166.80001068115234 c-6.800000190734863,0 -10.800000190734863,-5.199999809265137 -10.800000190734863,-11.699999809265137 s4.099999904632568,-11.699999809265137 10.800000190734863,-11.699999809265137 s10.800000190734863,5.199999809265137 10.800000190734863,11.699999809265137 C49.19999885559082,161.70000457763672 45.10000038146973,166.80001068115234 38.40000343322754,166.80001068115234 zM38.40000343322754,147.70000457763672 c-4.099999904632568,0 -6.099999904632568,3.200000047683716 -6.099999904632568,7.5 v0.10000000149011612 c0,4.300000190734863 1.899999976158142,7.5 6.099999904632568,7.5 c4.099999904632568,0 6,-3.200000047683716 6,-7.5 C44.40000343322754,151.10001373291016 42.60000038146973,147.70000457763672 38.40000343322754,147.70000457763672 z" id="svg_20"/>
			<path class="st1" d="M57.10000038146973,166.50000762939453 l-6.400000095367432,-22.700000762939453 h5.199999809265137 l4.400000095367432,16.700000762939453 l4.300000190734863,-16.700000762939453 h5.199999809265137 L63.299997329711914,166.50000762939453 H57.10000038146973 z" id="svg_21"/>
			<path class="st1" d="M72.60000038146973,160.80001068115234 c1.7000000476837158,0 3,1.399999976158142 3,3 c0,1.7000000476837158 -1.399999976158142,3 -3,3 c-1.7000000476837158,0 -3,-1.399999976158142 -3,-3 C69.50000190734863,162.10001373291016 70.90000343322754,160.80001068115234 72.60000038146973,160.80001068115234 z" id="svg_22"/>
			<path class="st1" d="M93.10000038146973,157.80001068115234 v-14.100000381469727 h4.5 V158.50000762939453 c0,5.099999904632568 -3.9000000953674316,8.300000190734863 -9.199999809265137,8.300000190734863 c-5.300000190734863,0 -9.199999809265137,-3.200000047683716 -9.199999809265137,-8.300000190734863 v-14.699999809265137 h4.5 v14.100000381469727 c0,3.299999952316284 2,4.800000190734863 4.699999809265137,4.800000190734863 C91.10000038146973,162.70000457763672 93.10000038146973,161.10001373291016 93.10000038146973,157.80001068115234 z" id="svg_23"/>
			<path class="st1" d="M102.49998664855957,143.80001068115234 h4.599999904632568 v9.800000190734863 l8.100000381469727,-9.800000190734863 h5.599999904632568 l-7.900000095367432,9 l8.399999618530273,13.699999809265137 h-5.300000190734863 l-6,-10.199999809265137 l-2.9000000953674316,3.299999952316284 v6.900000095367432 h-4.599999904632568 L102.49998664855957,143.80001068115234 L102.49998664855957,143.80001068115234 z" id="svg_24"/>
		</g>
		<g id="svg_25">
			<path class="st1" d="M141.5999927520752,166.50000762939453 l-6.699999809265137,-22.700000762939453 h3 l5.5,20.100000381469727 l5.599999904632568,-20.100000381469727 h3 l-6.599999904632568,22.700000762939453 H141.5999927520752 z" id="svg_26"/>
			<path class="st1" d="M156.5999927520752,143.80001068115234 h13.600000381469727 v2.4000000953674316 h-10.800000190734863 v7.5 h9.899999618530273 v2.4000000953674316 h-9.899999618530273 v8 h11.399999618530273 v2.4000000953674316 H156.5999927520752 V143.80001068115234 z" id="svg_27"/>
			<path class="st1" d="M175.79998970031738,143.80001068115234 h7.699999809265137 c4.199999809265137,0 7.5,2.0999999046325684 7.5,6.800000190734863 c0,2.9000000953674316 -1.600000023841858,5.199999809265137 -4.5,6.300000190734863 l4.800000190734863,9.600000381469727 h-3.200000047683716 l-4.300000190734863,-9.100000381469727 H178.5999927520752 v9.100000381469727 h-2.799999952316284 V143.80001068115234 zM183.69999885559082,155.00000762939453 c2.5999999046325684,0 4.5,-1.600000023841858 4.5,-4.300000190734863 c0,-2.799999952316284 -1.899999976158142,-4.400000095367432 -4.5,-4.400000095367432 H178.5999927520752 v8.800000190734863 h5.099999904632568 V155.00000762939453 z" id="svg_28"/>
			<path class="st1" d="M196.399995803833,143.80001068115234 h2.799999952316284 V166.50000762939453 h-2.799999952316284 V143.80001068115234 z" id="svg_29"/>
			<path class="st1" d="M205.69999885559082,143.80001068115234 h13.600000381469727 v2.4000000953674316 h-10.800000190734863 v7.5 h9.899999618530273 v2.4000000953674316 h-9.899999618530273 V166.50000762939453 h-2.799999952316284 V143.80001068115234 z" id="svg_30"/>
			<path class="st1" d="M236.30000495910645,143.80001068115234 h3 l-7.300000190734863,13.399999618530273 v9.300000190734863 h-2.799999952316284 v-9.300000190734863 l-7.300000190734863,-13.399999618530273 h3.200000047683716 l5.599999904632568,10.800000190734863 L236.30000495910645,143.80001068115234 z" id="svg_31"/>
		</g>
		<path class="st1" d="M187.0999927520752,0 c-18.700000762939453,0 -35.79999923706055,2.4000000953674316 -49.20000076293945,6.5 v7.599999904632568 v36 v33 c0,8.899999618530273 7.300000190734863,17.200000762939453 24.399999618530273,27.600000381469727 c9.699999809265137,5.900000095367432 19.600000381469727,10.600000381469727 20.700000762939453,11.100000381469727 l4,1.899999976158142 l4,-1.899999976158142 c0.4000000059604645,-0.20000000298023224 10.600000381469727,-4.900000095367432 20.700000762939453,-11.100000381469727 c17.100000381469727,-10.5 24.399999618530273,-18.700000762939453 24.399999618530273,-27.600000381469727 v-33 v-36 V6.5 C222.90001106262207,2.4000015258789062 205.79998970031738,0 187.0999927520752,0 " id="svg_32"/>
		<polygon class="st0" points="209.5999927520752,33.30000305175781 177.899995803833,66.5 164.99998664855957,53 155.5999927520752,62.900001525878906 177.899995803833,86.30000305175781 218.99998664855957,43.19999694824219 " id="svg_33"/>
	</g>
	
</g></svg>