<?xml version="1.0" encoding="utf-8"?>
<!-- Generator: Adobe Illustrator 21.0.1, SVG Export Plug-In . SVG Version: 6.00 Build 0)  -->
<svg version="1.1" id="Layer_1" xmlns="http://www.w3.org/2000/svg" xmlns:xlink="http://www.w3.org/1999/xlink" x="0px" y="0px"
	 viewBox="0 0 256 64" style="enable-background:new 0 0 256 64;" xml:space="preserve">
<style type="text/css">
	.st0{fill:#0A0B0B;}
	.st1{fill:#FFFFFF;}
</style>
<title>Artboard 1</title>
<path class="st0" d="M31.6,63.6c17.5,0,31.6-14.2,31.6-31.6S49.1,0.3,31.6,0.3S0,14.5,0,31.9C0,49.4,14.2,63.6,31.6,63.6L31.6,63.6"
	/>
<path class="st1" d="M19.5,25.7c1.1,0.4,2.3-0.1,2.7-1.1c0.4-1.1-0.1-2.3-1.1-2.7c-1.1-0.4-2.3,0.1-2.7,1.1c0,0,0,0,0,0
	C18,24.1,18.5,25.3,19.5,25.7"/>
<path class="st1" d="M14.8,28.4c1.1,0.4,2.3-0.1,2.7-1.1c0.4-1.1-0.1-2.3-1.1-2.7c-1.1-0.4-2.3,0.1-2.7,1.1c0,0,0,0,0,0
	C13.3,26.8,13.8,28,14.8,28.4"/>
<path class="st1" d="M13.5,33.7c1.1,0.4,2.3-0.1,2.7-1.1c0.4-1.1-0.1-2.3-1.1-2.7s-2.3,0.1-2.7,1.1c0,0,0,0,0,0
	C11.9,32.1,12.4,33.3,13.5,33.7"/>
<path class="st1" d="M24.8,27.4c1.1,0.4,2.3,0,2.7-1.1c0.4-1.1,0-2.3-1.1-2.7c-1.1-0.4-2.3,0-2.7,1.1c0,0,0,0,0,0
	C23.2,25.7,23.7,26.9,24.8,27.4"/>
<path class="st1" d="M43.8,25.7c-1.1,0.4-2.3-0.1-2.7-1.1s0.1-2.3,1.1-2.7s2.3,0.1,2.7,1.1c0,0,0,0,0,0C45.3,24,44.8,25.2,43.8,25.7
	"/>
<path class="st1" d="M48.5,28.4c-1.1,0.4-2.3-0.1-2.7-1.1s0.1-2.3,1.1-2.7c1.1-0.4,2.3,0.1,2.7,1.1c0,0,0,0,0,0
	C50,26.8,49.5,28,48.5,28.4"/>
<path class="st1" d="M49.8,33.7c-1.1,0.4-2.3-0.1-2.7-1.2c-0.4-1.1,0.1-2.3,1.2-2.7c1.1-0.4,2.3,0.1,2.7,1.2c0,0,0,0,0,0
	C51.4,32.1,50.9,33.3,49.8,33.7"/>
<path class="st1" d="M38.5,27.4c-1.1,0.4-2.3-0.1-2.7-1.1s0.1-2.3,1.1-2.7c1.1-0.4,2.3,0.1,2.7,1.1c0,0,0,0,0,0
	C40.1,25.7,39.6,26.9,38.5,27.4"/>
<path class="st1" d="M32.7,22L32.7,22l2.6,1.4v-3.9l-2.6,0.8l0,0c-0.1-0.1-0.2-0.2-0.3-0.3l0,0l1-3.3h-3.8l1,3.3l0,0
	c-0.1,0.1-0.2,0.2-0.3,0.3l0,0l-2.6-0.8v3.9l2.6-1.4l0,0c0.1,0.1,0.2,0.2,0.3,0.3l-1.5,4.5l0,0l0,0c-0.4,1.3,0.3,2.7,1.6,3.1
	c0.1,0,0.3,0.1,0.4,0.1h0h0.3H32h0c1.2-0.2,2.1-1.2,2.1-2.4c0-0.2,0-0.5-0.1-0.7l0,0l0,0l-1.5-4.5C32.6,22.2,32.7,22.1,32.7,22"/>
<path class="st1" d="M31.6,44.2c4.6,0,9.3,0.3,13.9,0.9c1.2-5,2.6-7.9,4.1-9.9l-2.8-1c0.3,1,0.3,2,0,3c-0.6-0.7-1.1-1.6-1.2-2.6
	l-1.4,4.5c0.6-0.5,1.4-0.9,2.2-1c-1.3,2.8-2.9,3.5-4,3.3c-1.1-0.2-1.9-1.2-1.7-2.3c0,0,0-0.1,0-0.1c0.3-1.4,1.7-1.7,2.4-0.1
	c1.3-2.6-0.9-3.4-2.3-2.6c2.1-2.1,2.4-4,0.7-6.3c-2.4,1.8-2.4,3.6-1.3,6.2c-1.4-1.6-3.5-0.7-2.8,1.8c1-1.5,2.3-0.6,2.1,0.9
	c-0.2,1.3-1.9,2.3-4,2.1c-3-0.3-3.2-2.4-3.3-4.1c0.7-0.1,2.1,0.5,3.2,2.2l0.5-4.8c-0.9,1-2.2,1.6-3.6,1.6c0.6-1.3,1.4-2.4,2.3-3.4
	h-6c0.9,1,1.7,2.2,2.3,3.4c-1.4,0-2.7-0.5-3.6-1.6l0.4,4.8c1.1-1.6,2.5-2.3,3.2-2.2c-0.1,1.7-0.3,3.8-3.3,4.1
	c-2.1,0.2-3.8-0.8-4-2.1c-0.2-1.5,1.1-2.5,2.1-0.9c0.8-2.6-1.4-3.4-2.8-1.8c1.1-2.5,1-4.3-1.3-6.2c-1.7,2.3-1.5,4.2,0.6,6.3
	c-1.4-0.8-3.5,0-2.3,2.6c0.7-1.6,2.1-1.2,2.4,0.1c0.2,1.1-0.5,2.1-1.6,2.3c0,0-0.1,0-0.1,0c-1,0.2-2.7-0.5-4-3.3
	c0.8,0.1,1.6,0.5,2.2,1l-1.4-4.5c-0.2,0.9-0.6,1.8-1.2,2.6c-0.3-1-0.3-2,0-3l-2.8,1c1.5,2,3,4.9,4.1,9.9
	C22.3,44.6,27,44.3,31.6,44.2"/>
<path class="st0" d="M96,0.3c-8.5-0.1-17,1-25.2,3.3v39.3c0,4.6,3.8,8.8,12.5,14.2c5,3,10.1,5.4,10.6,5.7l2.1,1l2.1-1
	c3.6-1.7,7.2-3.7,10.6-5.8c8.8-5.4,12.5-9.6,12.5-14.2V3.6C113,1.3,104.5,0.2,96,0.3"/>
<polygon class="st1" points="107.5,17.4 91.3,34.4 84.7,27.5 79.8,32.6 91.3,44.6 112.4,22.4 "/>
<path class="st0" d="M152.3,17.4h-5.8v-3.5h10.3v12.5h-4v-2.7c-1.4,2-3.8,3.1-6.2,3c-6.6,0-10.4-5.2-10.4-11.7S140.4,3.3,147,3.3
	c4.3,0,7.8,2.1,9.3,5.3l-4,2.3c-0.9-2.1-3-3.4-5.3-3.3c-4.2,0-6.1,3.5-6.1,7.3V15c0,3.9,1.9,7.5,6.1,7.5c2.7,0.2,5-1.7,5.3-4.4
	C152.3,17.8,152.3,17.6,152.3,17.4"/>
<path class="st0" d="M171.1,26.6c-6.8,0-10.8-5.2-10.8-11.7s4.1-11.7,10.8-11.7s10.8,5.2,10.8,11.7S177.9,26.7,171.1,26.6
	 M171.1,7.5c-4.2,0-6.1,3.2-6.1,7.5v0c0,4.3,1.9,7.5,6.1,7.5s6-3.2,6-7.5S175.3,7.4,171.1,7.5"/>
<polygon class="st0" points="190.2,26.3 183.7,3.6 188.9,3.6 193.3,20.3 197.7,3.6 202.8,3.6 196.4,26.3 "/>
<path class="st0" d="M206.5,20.6c1.7,0,3,1.4,2.9,3c0,1.7-1.4,3-3,2.9c-1.6,0-2.9-1.4-2.9-3C203.5,21.9,204.9,20.6,206.5,20.6"/>
<path class="st0" d="M227.4,17.6V3.6h4.6v14.8c0,5.1-3.9,8.3-9.2,8.3s-9.2-3.2-9.2-8.3V3.6h4.5v14.1c0,3.3,2,4.8,4.7,4.8
	S227.4,21,227.4,17.6"/>
<polygon class="st0" points="237.1,3.6 241.7,3.6 241.7,13.4 249.8,3.6 255.5,3.6 247.6,12.6 256,26.3 250.6,26.3 244.6,16.1 
	241.7,19.4 241.7,26.3 237.1,26.3 "/>
<polygon class="st0" points="144.3,60.3 137.6,37.5 140.6,37.5 146.2,57.7 151.8,37.5 154.8,37.5 148.1,60.3 "/>
<polygon class="st0" points="159.7,37.5 173.3,37.5 173.3,39.9 162.5,39.9 162.5,47.4 172.4,47.4 172.4,49.8 162.5,49.8 162.5,57.9 
	173.9,57.9 173.9,60.3 159.7,60.3 "/>
<path class="st0" d="M179.3,37.5h7.8c4.2,0,7.6,2.1,7.6,6.8c0,2.9-1.8,5.4-4.5,6.3l4.8,9.6h-3.2l-4.3-9.1h-5.3v9.1h-2.8L179.3,37.5z
	 M187.2,48.7c2.3,0.2,4.3-1.5,4.5-3.8c0-0.2,0-0.4,0-0.6c0.1-2.3-1.6-4.3-3.9-4.4c-0.2,0-0.4,0-0.5,0h-5.1v8.8L187.2,48.7z"/>
<rect x="200.2" y="37.5" class="st0" width="2.8" height="22.7"/>
<polygon class="st0" points="209.9,37.5 223.5,37.5 223.5,39.9 212.7,39.9 212.7,47.4 222.6,47.4 222.6,49.8 212.7,49.8 212.7,60.3 
	209.9,60.3 "/>
<polygon class="st0" points="240.8,37.5 243.8,37.5 236.5,51 236.5,60.3 233.7,60.3 233.7,51 226.4,37.5 229.6,37.5 235.2,48.4 "/>
</svg>
